<?xml version="1.0" encoding="UTF-8" standalone="no"?><!DOCTYPE svg PUBLIC "-//W3C//DTD SVG 1.1//EN" "http://www.w3.org/Graphics/SVG/1.1/DTD/svg11.dtd"><svg width="100%" height="100%" viewBox="0 0 941 880" version="1.1" xmlns="http://www.w3.org/2000/svg" xmlns:xlink="http://www.w3.org/1999/xlink" xml:space="preserve" xmlns:serif="http://www.serif.com/" style="fill-rule:evenodd;clip-rule:evenodd;stroke-linecap:round;stroke-linejoin:round;stroke-miterlimit:1.5;"><g><path d="M742.252,766.729c-26.194,37.378 -114.721,94.684 -163.999,109.4c-42.592,12.719 -92.298,-20.804 -131.672,-21.104c-35.447,-0.269 -69.789,26.122 -104.576,19.309c-55.34,-10.838 -170.921,-29.331 -227.468,-84.337c-32.894,-31.999 15.33,-81.239 -5.251,-133.857c-14.798,-37.834 -102.59,-78.065 -106.56,-111.845c-9.491,-80.761 5.296,-149.522 56.716,-213.005c15.442,-19.065 81.37,-69.817 107.646,-89.802c64.699,-49.212 105.715,-89.672 156.436,-93.241c68.457,-4.817 123.124,100.822 161.987,127.071c21.385,14.444 46.84,21.877 71.189,30.425c43.398,15.234 149.865,30.533 189.2,60.983c34.373,26.609 48.341,84.917 46.808,121.717c-1.534,36.799 -46.459,71.845 -56.008,99.082c-7.097,20.241 -1.951,42.896 -1.287,64.335c0.926,29.868 28.851,83.457 6.839,114.869Z" style="fill:#903;"/><path d="M787.406,725.699c-26.193,37.378 -114.721,94.684 -163.999,109.4c-42.592,12.72 -92.297,-20.804 -131.672,-21.103c-35.447,-0.269 -69.789,26.122 -104.576,19.309c-55.34,-10.838 -170.921,-29.331 -227.467,-84.338c-32.895,-31.999 15.33,-81.238 -5.252,-133.857c-14.798,-37.833 -102.589,-78.064 -106.559,-111.844c-9.491,-80.762 5.295,-149.523 56.716,-213.006c15.442,-19.064 81.369,-69.816 107.645,-89.802c64.7,-49.211 105.715,-89.672 156.436,-93.241c68.458,-4.817 123.125,100.822 161.987,127.071c21.385,14.444 46.84,21.877 71.19,30.425c43.398,15.235 149.864,30.533 189.199,60.983c34.373,26.609 48.341,84.917 46.808,121.717c-1.533,36.8 -46.459,71.846 -56.008,99.082c-7.097,20.242 -1.951,42.896 -1.286,64.336c0.925,29.867 28.851,83.456 6.838,114.868Z" style="fill:#eeefa8;"/><g><g id="back-legs" serif:id="back legs"><g id="leg"><path d="M266.341,548.389c4.114,-0.581 21.536,4.643 21.536,4.643l7.588,10.88l-21.807,2.51l-10.463,-9.906c0,0 0.27,-7.721 3.146,-8.127Z" style="fill:#d7263d;"/><path d="M283.81,428.315c0,-4.041 -3.281,-7.321 -7.322,-7.321c-4.04,0 -7.321,3.28 -7.321,7.321l0,130.246c0,4.04 3.281,7.321 7.321,7.321c4.041,0 7.322,-3.281 7.322,-7.321l0,-130.246Z" style="fill:#6d0024;"/><path d="M287.877,553.032l10.095,2.218c4.177,0.918 7.82,3.457 10.125,7.061c2.305,3.603 3.084,7.974 2.167,12.152c-0.001,0 -0.001,0.001 -0.001,0.001c-0.918,4.178 -3.457,7.82 -7.06,10.125c-3.604,2.305 -7.975,3.085 -12.153,2.167c-10.134,-2.227 -22.808,-5.011 -30.533,-6.708c-1.858,-0.408 -3.478,-1.538 -4.503,-3.14c-1.026,-1.603 -1.372,-3.547 -0.964,-5.406c1.144,-5.208 2.699,-12.284 3.843,-17.492c0.408,-1.859 1.538,-3.479 3.14,-4.504c1.289,-0.825 2.799,-1.21 4.308,-1.117c-1.251,5.91 2.503,11.741 8.414,13.039c5.938,1.304 11.818,-2.457 13.122,-8.396Z" style="fill:#ff6f59;"/></g><g id="leg1" serif:id="leg"><path d="M490.114,598.938c3.776,-1.733 21.965,-1.71 21.965,-1.71l10.382,8.255l-20.178,8.642l-12.859,-6.5c0,0 -1.95,-7.476 0.69,-8.687Z" style="fill:#d7263d;"/><path d="M508.741,475.238c0,-4.041 -3.28,-7.321 -7.321,-7.321c-4.041,0 -7.321,3.28 -7.321,7.321l0,130.246c0,4.041 3.28,7.321 7.321,7.321c4.041,0 7.321,-3.28 7.321,-7.321l0,-130.246Z" style="fill:#6d0024;"/><path d="M512.079,597.228l10.307,-0.762c4.266,-0.316 8.482,1.077 11.721,3.87c3.24,2.793 5.237,6.759 5.552,11.025c0,0 0,0.001 0,0.001c0.316,4.266 -1.076,8.482 -3.87,11.722c-2.793,3.239 -6.759,5.236 -11.025,5.551c-10.348,0.765 -23.289,1.722 -31.176,2.305c-1.897,0.14 -3.772,-0.479 -5.213,-1.721c-1.441,-1.243 -2.33,-3.007 -2.47,-4.904c-0.393,-5.318 -0.927,-12.543 -1.32,-17.861c-0.141,-1.898 0.479,-3.773 1.721,-5.214c0.999,-1.159 2.336,-1.96 3.808,-2.302c0.492,6.02 5.757,10.534 11.792,10.088c6.063,-0.448 10.621,-5.735 10.173,-11.798Z" style="fill:#ff6f59;"/></g></g><g id="antler"><g><path d="M780.178,114.167c16.977,-12.619 50.931,-37.858 65.697,-38.476c13.864,-0.58 19.883,22.985 22.893,34.768" style="fill:none;stroke:#6d0024;stroke-width:8px;"/><circle cx="868.768" cy="107.002" r="17.929" style="fill:#ea8996;"/></g><g><path d="M603.378,107.002c-6.59,-30.522 -19.77,-91.566 -33.046,-100.608c-13.275,-9.042 -35.495,27.891 -46.605,46.358" style="fill:none;stroke:#6d0024;stroke-width:8px;"/><circle cx="523.727" cy="57.751" r="17.929" style="fill:#ea8996;"/></g></g><g id="body"><g id="body1" serif:id="body"><path d="M446.719,326.669c152.594,17.421 265.72,125.833 265.72,125.833c0,0 -134.649,80.126 -287.244,62.705c-152.594,-17.42 -194.441,-121.539 -194.441,-121.539c0,0 63.371,-84.419 215.965,-66.999Z" style="fill:#d7263d;"/><clipPath id="_clip1"><path d="M446.719,326.669c152.594,17.421 265.72,125.833 265.72,125.833c0,0 -134.649,80.126 -287.244,62.705c-152.594,-17.42 -194.441,-121.539 -194.441,-121.539c0,0 63.371,-84.419 215.965,-66.999Z"/></clipPath><g clip-path="url(#_clip1)"><g id="body-pattern" serif:id="body pattern"><circle cx="664.008" cy="439.407" r="115.105" style="fill:none;stroke:#6d0024;stroke-width:3.5px;"/><circle cx="610.436" cy="447.187" r="138.488" style="fill:none;stroke:#6d0024;stroke-width:3.5px;"/><circle cx="560.031" cy="455.79" r="166.621" style="fill:none;stroke:#6d0024;stroke-width:3.5px;"/><circle cx="512.672" cy="455.79" r="200.469" style="fill:none;stroke:#6d0024;stroke-width:3.5px;"/><circle cx="485.459" cy="465.379" r="241.193" style="fill:none;stroke:#6d0024;stroke-width:3.5px;"/></g><path id="forebody-shadow" serif:id="forebody shadow" d="M638.143,367.961c-9.009,-12.249 -45.308,20.013 -53.375,34.619c-8.067,14.606 3.132,38.694 4.974,53.016c1.411,10.966 -0.98,25.818 6.082,32.917c7.062,7.099 29.123,11.752 36.289,9.679c7.166,-2.073 6.348,-14.366 6.707,-22.116c1.005,-21.705 8.331,-95.865 -0.677,-108.115Z" style="fill:#6d0024;fill-opacity:0.43;"/><path id="leg-shadow" serif:id="leg shadow" d="M326.302,446.194c-1.076,-3.685 -7.401,3.87 -8.78,7.452c-1.489,3.867 -0.122,10.829 -0.153,15.752c-0.029,4.597 -1.974,9.623 -0.035,13.79c2.123,4.561 11.309,19.614 12.772,13.576c1.495,-6.166 -1.707,-43.384 -3.804,-50.57Z" style="fill:#6d0024;fill-opacity:0.43;"/><path id="leg-shadow1" serif:id="leg shadow" d="M564.3,483.591c-1.075,-3.685 -7.4,3.87 -8.779,7.452c-1.489,3.868 -0.122,10.829 -0.153,15.753c-0.03,4.596 -1.975,9.622 -0.035,13.789c2.123,4.561 11.309,19.614 12.772,13.576c1.495,-6.166 -1.707,-43.384 -3.805,-50.57Z" style="fill:#6d0024;fill-opacity:0.43;"/></g></g><circle id="forebody" cx="694.046" cy="440.822" r="97.04" style="fill:#d7263d;"/><clipPath id="_clip2"><circle cx="694.046" cy="440.822" r="97.04"/></clipPath><g clip-path="url(#_clip2)"><g><path d="M631.032,368.879c15.392,10.162 46.176,30.486 68.526,30.804c22.349,0.317 51.162,-19.159 65.569,-28.897" style="fill:none;stroke:#6d0024;stroke-width:3.5px;"/><path d="M604.307,395.332c21.218,14.775 63.653,44.324 93.933,45.455c30.279,1.131 68.589,-25.403 87.744,-38.67" style="fill:none;stroke:#6d0024;stroke-width:3.5px;"/><path d="M588.861,468.441c25.509,15.806 76.525,47.418 109.379,49.168c31.917,1.7 69.135,-25.213 87.744,-38.67" style="fill:none;stroke:#6d0024;stroke-width:3.5px;"/><path d="M589.742,427.357c25.124,16.028 75.372,48.085 109.593,49.264c34.22,1.179 75.227,-27.733 95.731,-42.19" style="fill:none;stroke:#6d0024;stroke-width:3.5px;"/></g><path id="leg-shadow2" serif:id="leg shadow" d="M645.532,512.234c-0.447,-2.554 -7.687,0.201 -9.571,1.978c-2.033,1.919 -1.825,6.551 -2.632,9.537c-0.753,2.787 -3.406,5.278 -2.208,8.377c1.31,3.392 7.717,15.221 10.069,11.974c2.402,-3.315 5.213,-26.885 4.342,-31.866Z" style="fill:#6d0024;fill-opacity:0.43;"/><path id="head-shadow" serif:id="head shadow" d="M599.351,328.186c-1.088,10.592 13.703,27.023 23.574,32.385c9.871,5.361 25.114,-1.22 35.652,-0.216c9.382,0.894 20.012,5.89 27.577,6.241c6.087,0.282 11.897,-2.657 17.809,-4.138c10.485,-2.626 56.77,-1.374 45.104,-11.62c-12.418,-10.907 -94.66,-50.047 -119.613,-53.822c-14.282,-2.161 -29.015,20.578 -30.103,31.17Z" style="fill:#6d0024;fill-opacity:0.43;"/></g><g id="head-and-face" serif:id="head and face"><circle id="head" cx="694.046" cy="215.682" r="143.691" style="fill:#d7263d;"/><g id="face"><ellipse cx="598.027" cy="263.01" rx="25.967" ry="14.74" style="fill:#ea8996;"/><ellipse cx="790.066" cy="248.27" rx="25.967" ry="14.74" style="fill:#ea8996;"/><circle cx="660.036" cy="208.241" r="5.815"/><circle cx="723.18" cy="209.121" r="5.815"/><path d="M635.757,279.03c2.215,-9.616 84.348,-34.789 98.56,-30.208c14.211,4.581 3.137,52.659 -13.29,57.693c-16.427,5.035 -87.485,-17.87 -85.27,-27.485Z" style="fill:#903;"/><clipPath id="_clip3"><path d="M635.757,279.03c2.215,-9.616 84.348,-34.789 98.56,-30.208c14.211,4.581 3.137,52.659 -13.29,57.693c-16.427,5.035 -87.485,-17.87 -85.27,-27.485Z"/></clipPath><g clip-path="url(#_clip3)"><ellipse cx="706.686" cy="293.99" rx="46.651" ry="26.204" style="fill:#ea8996;"/></g></g></g></g><g id="front"><g id="leg2" serif:id="leg"><path d="M316.507,634.543c4.046,-0.946 21.866,2.698 21.866,2.698l8.53,10.157l-21.495,4.451l-11.307,-8.93c0,0 -0.422,-7.714 2.406,-8.376Z" style="fill:#d7263d;"/><path d="M334.994,452.527c0,-4.04 -3.281,-7.321 -7.321,-7.321c-4.041,0 -7.321,3.281 -7.321,7.321l0,192.682c0,4.041 3.28,7.321 7.321,7.321c4.04,0 7.321,-3.28 7.321,-7.321l0,-192.682Z" style="fill:#6d0024;"/><path d="M338.373,637.241l10.252,1.305c4.243,0.541 8.098,2.744 10.716,6.127c2.618,3.382 3.786,7.666 3.246,11.909c0,0.001 -0.001,0.001 -0.001,0.002c-0.54,4.243 -2.744,8.097 -6.126,10.716c-3.383,2.618 -7.667,3.785 -11.91,3.245c-10.293,-1.311 -23.165,-2.95 -31.01,-3.949c-1.888,-0.24 -3.602,-1.22 -4.767,-2.725c-1.164,-1.504 -1.684,-3.41 -1.443,-5.297c0.673,-5.29 1.588,-12.477 2.262,-17.766c0.24,-1.888 1.22,-3.602 2.725,-4.767c1.21,-0.937 2.679,-1.456 4.19,-1.498c-0.717,5.998 3.544,11.469 9.547,12.234c6.031,0.768 11.551,-3.505 12.319,-9.536Z" style="fill:#ff6f59;"/></g><g id="leg3" serif:id="leg"><path d="M554.452,657.365c3.776,-1.732 21.965,-1.709 21.965,-1.709l10.382,8.255l-20.179,8.642l-12.859,-6.5c0,0 -1.949,-7.476 0.691,-8.688Z" style="fill:#d7263d;"/><path d="M573.056,486.505c0,-4.041 -3.281,-7.322 -7.321,-7.322c-4.041,0 -7.322,3.281 -7.322,7.322l0,178.292c0,4.041 3.281,7.322 7.322,7.322c4.04,0 7.321,-3.281 7.321,-7.322l0,-178.292Z" style="fill:#6d0024;"/><path d="M576.417,655.656l10.307,-0.762c4.266,-0.316 8.482,1.076 11.721,3.87c3.24,2.793 5.237,6.759 5.552,11.025c0,0 0,0 0,0.001c0.315,4.266 -1.077,8.482 -3.87,11.721c-2.793,3.24 -6.759,5.237 -11.025,5.552c-10.348,0.765 -23.289,1.722 -31.176,2.305c-1.897,0.14 -3.773,-0.479 -5.214,-1.721c-1.44,-1.243 -2.329,-3.007 -2.469,-4.904c-0.393,-5.318 -0.927,-12.543 -1.321,-17.861c-0.14,-1.898 0.479,-3.773 1.722,-5.214c0.999,-1.159 2.336,-1.96 3.808,-2.303c0.491,6.021 5.757,10.535 11.791,10.089c6.063,-0.449 10.622,-5.735 10.174,-11.798Z" style="fill:#ff6f59;"/></g></g><g id="forefront"><g><path d="M645.366,701.87c5.062,-1.292 10.219,1.769 11.511,6.83c1.291,5.061 -1.769,10.219 -6.83,11.511c-5.062,1.291 -10.219,-1.769 -11.511,-6.831c-1.291,-5.061 1.769,-10.219 6.83,-11.51Z" style="fill:#d7263d;"/><path d="M655.143,515.447c0,-4.041 -3.28,-7.321 -7.321,-7.321c-4.041,0 -7.321,3.28 -7.321,7.321l0,201.826c0,4.041 3.28,7.321 7.321,7.321c4.041,0 7.321,-3.28 7.321,-7.321l0,-201.826Z" style="fill:#6d0024;"/><path d="M639.199,700.71c-4.159,1.27 -6.502,5.672 -5.231,9.832c2.54,8.317 6.678,21.866 9.762,31.965c2.232,7.311 9.968,11.427 17.279,9.194c0,0 0.001,0 0.001,0c7.311,-2.233 11.427,-9.969 9.194,-17.279c-3.084,-10.099 -7.222,-23.648 -9.762,-31.966c-1.27,-4.159 -5.672,-6.501 -9.831,-5.231c-3.575,1.092 -7.837,2.393 -11.412,3.485Zm6.167,1.16c5.062,-1.292 10.219,1.769 11.511,6.83c1.291,5.061 -1.769,10.219 -6.83,11.511c-5.062,1.291 -10.219,-1.769 -11.511,-6.831c-1.291,-5.061 1.769,-10.219 6.83,-11.51Z" style="fill:#ff6f59;"/><path d="M655.143,515.447c0,-4.041 -3.28,-7.321 -7.321,-7.321c-4.041,0 -7.321,3.28 -7.321,7.321l0,188.272c0,4.041 3.28,7.321 7.321,7.321c4.041,0 7.321,-3.28 7.321,-7.321l0,-188.272Z" style="fill:#6d0024;"/></g><g><path d="M890.922,561.158c3.775,-1.733 21.964,-1.71 21.964,-1.71l10.383,8.256l-20.179,8.641l-12.859,-6.499c0,0 -1.95,-7.476 0.691,-8.688Z" style="fill:#d7263d;"/><path d="M782.335,430.383c-3.913,1.008 -6.273,5.002 -5.266,8.915c1.007,3.913 5.002,6.273 8.915,5.266l64.216,-16.527c3.914,-1.008 6.273,-5.002 5.266,-8.915c-1.007,-3.913 -5.002,-6.273 -8.915,-5.266l-64.216,16.527Z" style="fill:#6d0024;"/><path d="M856.968,418.46c-1.372,-3.801 -5.572,-5.772 -9.372,-4.399c-3.801,1.372 -5.772,5.572 -4.399,9.372l52.808,146.238c1.373,3.8 5.572,5.771 9.373,4.399c3.8,-1.373 5.771,-5.572 4.399,-9.373l-52.809,-146.237Z" style="fill:#6d0024;"/><path d="M912.886,559.448l10.307,-0.762c4.266,-0.315 8.482,1.077 11.722,3.87c3.239,2.794 5.236,6.759 5.551,11.025c0,0.001 0,0.001 0.001,0.001c0.315,4.266 -1.077,8.482 -3.871,11.722c-2.793,3.239 -6.759,5.236 -11.024,5.552c-10.348,0.765 -23.29,1.721 -31.176,2.305c-1.898,0.14 -3.773,-0.479 -5.214,-1.722c-1.441,-1.242 -2.329,-3.006 -2.47,-4.904c-0.393,-5.318 -0.927,-12.543 -1.32,-17.861c-0.14,-1.897 0.479,-3.773 1.721,-5.214c1,-1.158 2.336,-1.96 3.809,-2.302c0.491,6.021 5.756,10.534 11.791,10.088c6.063,-0.448 10.622,-5.735 10.173,-11.798Z" style="fill:#ff6f59;"/></g></g></g></g></svg>